<svg width="256" height="256" viewBox="0 0 256 256" fill="none" xmlns="http://www.w3.org/2000/svg">
<rect width="256" height="256" rx="64" fill="#444B62"/>
<path d="M179.217 52.6489C176.245 50.4779 173.643 49.0209 171.735 48.0697C170.11 47.258 168.992 46.8125 167.579 46.6127C165.615 46.3338 163.996 46.6564 162.591 47.029C157.539 48.3653 153.628 50.7589 149.914 53.0651C149.914 53.0651 147.41 54.62 143.887 57.4361C142.073 58.8869 141.383 59.5717 140.77 60.5583C139.485 62.6272 139.365 64.6899 139.315 65.7618C139.17 68.9152 140.269 71.3005 140.978 72.8387C141.572 74.1271 142.245 75.1511 142.64 75.7527C143.228 76.6477 143.54 77.116 144.095 77.626C144.282 77.7966 144.937 78.3794 146.589 79.083C148.825 80.0342 150.71 80.2777 151.161 80.3318C152.464 80.4879 153.358 80.4338 155.11 80.3318C158.002 80.1611 159.588 79.722 160.305 79.4992C161.716 79.0621 162.279 78.6916 162.591 78.4585C163.587 77.7134 164.098 76.8225 164.462 76.169C164.771 75.6132 164.62 75.7568 165.709 72.8387C166.344 71.134 166.662 70.2827 166.748 70.1328C166.962 69.754 167.145 69.5001 167.163 69.0921C167.194 68.4157 166.756 67.8204 166.124 67.2188C165.054 66.1989 164.322 66.0137 162.383 64.9293C162.254 64.8564 160.999 64.1508 159.474 63.056C158.485 62.3462 157.863 61.8196 157.396 60.9746C157.163 60.5562 156.795 59.8693 156.98 59.1013C157.032 58.8806 157.142 58.608 157.603 58.0606C158.32 57.2093 159.035 56.7076 159.474 56.3954C160.243 55.8501 160.987 55.2694 161.76 54.7303C164.807 52.6031 164.757 52.6051 165.085 52.4407C166.411 51.7767 167.523 51.604 168.826 51.4C169.335 51.3209 171.536 51.0004 174.437 51.4C175.678 51.5707 177.34 51.9141 179.217 52.6489Z" fill="white"/>
<path d="M137.237 69.7165C136.844 67.7267 136.904 66.0553 137.029 64.9292C137.158 63.7636 137.38 61.9299 138.484 59.9338C139.147 58.7349 139.837 58.0022 140.978 56.8117C142.626 55.0903 144.093 53.9851 145.342 53.0651C146.36 52.3137 147.755 51.3562 149.498 50.3592C148.831 49.7952 147.921 49.0667 146.797 48.2778C146.233 47.8844 144.199 46.4815 140.562 44.7394C137.01 43.0389 135.233 42.1876 133.08 42.0335C130.838 41.8733 129.13 42.3333 128.716 42.4498C127.398 42.8224 126.503 43.3282 124.767 44.3231C123.693 44.9392 122.251 45.8259 120.611 47.029C121.324 46.7688 122.313 46.4503 123.52 46.1964C124.751 45.9383 126.1 45.6552 127.885 45.7801C129.682 45.905 131.033 46.3795 131.626 46.6127C132.613 46.9998 133.242 47.3932 134.327 48.0697C135.483 48.7919 135.034 48.6358 138.068 50.9837C138.787 51.5394 139.224 51.8662 139.315 52.4407C139.388 52.9048 139.219 53.4189 138.484 54.3139C136.942 56.1914 135.009 57.1967 134.535 57.4361C133.043 58.1896 132.392 58.2166 131.626 59.1012C131.353 59.4155 130.759 60.1024 130.794 60.9745C130.8 61.1077 130.819 61.2368 131.21 62.4315C131.416 63.0601 131.517 63.3765 131.626 63.6804C132.151 65.1707 132.415 65.9179 132.665 66.3862C132.964 66.9461 133.475 67.9057 134.535 68.6758C135.524 69.396 136.553 69.6332 137.237 69.7165Z" fill="white"/>
<path d="M98.7895 116.757C100.313 113.079 101.838 109.403 103.362 105.725C113.337 101.979 123.313 98.2321 133.288 94.4855C133.754 95.3389 134.641 96.646 136.198 97.6077C136.478 97.7804 136.873 98.026 137.445 98.2321C137.925 98.4048 140.337 99.1999 142.432 97.8158C143.505 97.106 143.989 96.1507 144.303 95.5262C145.375 93.3928 145.113 91.2801 144.926 90.3227C162.66 83.8016 180.395 77.2784 198.129 70.7573C195.012 81.4412 191.894 92.1273 188.777 102.811C188.203 102.178 187.116 101.159 185.452 100.522C182.561 99.4143 179.974 100.247 179.217 100.522C180.672 95.6657 182.127 90.8076 183.581 85.9517C155.317 96.2193 127.053 106.489 98.7895 116.757Z" fill="white"/>
<path d="M135.366 90.7389C135.616 91.6172 136.156 92.3665 137.237 93.861C137.733 94.5479 137.954 94.7602 138.276 94.9017C139.049 95.241 139.814 94.9517 139.938 94.9017C140.784 94.5604 141.115 93.8111 141.185 93.6529C141.223 93.5655 141.287 93.4073 141.393 92.8203C141.547 91.9711 141.593 91.3071 141.601 91.1552C141.676 89.898 141.616 88.876 141.601 88.6574C141.559 87.9914 141.433 85.9641 140.978 84.0783C139.749 78.9955 136.237 75.3759 135.99 75.1282C134.865 73.9959 133.151 72.3058 130.379 71.3816C129.402 71.0569 128.421 70.8675 126.846 70.7572C124.898 70.6198 121.239 70.5428 114.584 72.006C110.96 72.8032 109.145 73.2008 106.895 74.0875C105.554 74.6162 103.438 75.3405 99.2051 76.7933C99.0077 76.862 98.2949 77.1014 97.3347 77.2096C96.784 77.2721 96.2811 77.3283 95.6721 77.2096C94.7972 77.0389 94.7307 76.7059 93.8017 76.377C93.3611 76.2209 92.3906 75.8775 91.3078 76.1689C90.2874 76.4436 89.6723 77.1451 89.4374 77.4178C88.7953 78.1671 88.9096 78.5709 88.1905 79.9155C87.7977 80.6481 87.4922 81.2205 86.9436 81.7887C86.1892 82.5714 85.6384 82.6588 83.8262 83.662C82.9139 84.1657 82.7123 84.3343 81.748 84.9109C79.04 86.5323 75.8957 88.0559 75.0976 88.4493C73.1399 89.4172 70.7458 91.0365 65.9534 94.2773C61.5871 97.2308 58.8563 99.0875 55.3544 101.979C53.8456 103.223 52.3389 104.682 49.3276 107.598C46.9272 109.923 45.4766 111.434 44.7555 113.843C44.3232 115.289 44.3253 116.484 44.3398 116.965C44.4229 119.56 45.5389 121.359 45.7946 121.752C46.4347 122.743 47.1246 123.365 47.8728 124.042C48.4859 124.595 49.1426 125.18 50.1589 125.707C50.826 126.052 51.5783 126.442 52.6527 126.539C52.9146 126.564 54.0555 126.648 55.3544 126.123C55.7285 125.971 56.034 125.803 57.8483 124.458C58.6526 123.863 59.0558 123.567 59.5109 123.209C61.5954 121.573 63.4595 119.954 64.2908 119.254C65.5004 118.237 67.2897 116.834 69.6942 115.3C69.8272 115.377 70.0018 115.506 70.1099 115.716C70.4507 116.374 69.875 117.294 69.6942 117.589C68.1314 120.162 66.1612 125.773 65.7456 126.956C65.332 128.132 65.4235 128.088 64.4987 130.91C63.8835 132.786 63.6798 133.306 63.2517 134.657C63.021 135.385 62.5015 137.038 62.0048 139.028C60.9677 143.187 60.4482 145.266 60.1344 146.937C60.072 147.27 59.9536 147.918 59.5109 148.602C58.8521 149.622 57.8899 150.087 57.017 150.476C54.1179 151.768 52.6486 152.051 49.951 153.182C49.3691 153.425 48.5815 153.771 47.665 154.222C46.4264 154.832 44.8739 155.596 43.3007 156.72C41.2474 158.187 40.1335 159.505 39.1442 160.675C38.5436 161.385 38.2735 161.784 38.1051 162.34C37.6313 163.916 38.3878 165.41 38.7286 166.086C39.3915 167.4 40.3122 168.176 40.8068 168.584C41.1622 168.878 41.8064 169.267 43.0929 170.041C44.1777 170.695 44.4333 170.801 44.7555 170.874C45.7073 171.086 46.5157 170.836 47.0415 170.666C47.9663 170.366 48.5295 169.95 49.5354 169.209C50.5745 168.445 51.6282 167.702 52.6527 166.919C53.5131 166.261 54.7808 165.318 56.3936 164.213C56.5328 164.49 56.67 164.769 56.8092 165.046C56.8092 166.642 56.8092 168.237 56.8092 169.833C56.8092 171.082 56.8092 172.331 56.8092 173.58C57.0212 175.861 57.5615 177.688 58.0561 178.991C58.8188 180.998 59.7063 182.367 60.7578 183.987C61.2483 184.744 62.3768 186.422 64.083 188.358C65.0182 189.417 65.7726 190.275 66.9925 191.272C68.6821 192.652 70.112 193.361 70.5255 193.561C71.9928 194.269 73.0921 194.527 73.4351 194.602C73.4351 194.602 75.2556 195.004 76.7602 194.602C77.0096 194.535 77.3089 194.431 77.5915 194.186C77.7391 194.059 78.1402 193.719 78.215 193.145C78.2732 192.687 78.0612 192.331 77.7993 191.896C77.6206 191.596 76.7831 190.166 76.5524 189.815C75.8666 188.766 75.5528 187.835 75.3055 187.109C74.7942 185.604 74.7298 184.37 74.682 183.362C74.6155 181.916 74.7755 180.713 75.0976 178.367C75.3096 176.833 75.5154 175.68 75.9289 173.371C76.1617 172.077 76.3986 170.761 76.7602 169C77.0761 167.471 77.2632 166.555 77.5915 165.254C77.9801 163.707 78.3875 162.334 78.6306 161.507C78.9507 160.425 78.9756 160.394 79.2541 159.426C79.7155 157.823 79.9482 157.005 80.0854 156.096C80.3078 154.626 80.0771 154.674 80.2932 153.806C80.686 152.226 81.6732 151.188 82.1636 150.684C83.2942 149.52 84.4538 149.021 85.9044 148.394C87.301 147.791 87.8039 147.768 89.6453 147.145C94.6434 145.455 93.2635 145.595 93.8017 145.48C93.9285 145.453 94.3171 145.378 94.633 145.064C94.9572 144.741 95.032 144.34 95.0487 144.232C95.0715 144.084 95.1276 143.568 94.4252 142.566C93.9202 141.846 93.4027 141.422 92.7626 140.901C92.004 140.285 91.5863 139.946 90.8922 139.652C90.3581 139.425 89.772 139.178 89.0218 139.236C88.2653 139.294 88.072 139.607 87.3592 139.652C86.663 139.698 86.079 139.45 85.6966 139.236C85.7652 138.888 85.8359 138.543 85.9044 138.195C86.3097 137.488 86.9041 136.412 87.567 135.073C88.7786 132.621 89.373 130.992 90.4765 128.205C92.1454 123.994 92.0331 124.581 93.3861 121.128C94.7785 117.575 95.0881 116.465 96.2956 113.218C98.9557 106.066 99.7226 105.677 100.244 103.436C100.294 103.221 100.683 101.531 101.699 99.689C102.044 99.0646 102.298 98.717 102.53 98.4401C102.771 98.1529 103.588 97.2288 105.024 96.5669C105.787 96.2151 106.225 96.1672 107.102 95.9424C108.821 95.5012 109.21 95.1536 111.051 94.4854C112.641 93.9089 112.483 94.1212 116.454 93.0284C118.655 92.4227 118.541 92.404 120.819 91.7796C124.096 90.8804 123.608 91.1177 125.599 90.5307C125.599 90.5307 128.155 89.7773 130.379 89.2819C130.379 89.2819 130.825 89.182 131.626 89.0737C133.037 88.8822 133.544 88.9634 133.912 89.0737C134.18 89.1549 134.469 89.2444 134.743 89.49C135.165 89.8688 135.256 90.3455 135.366 90.7389Z" fill="white"/>
<path d="M53.6918 147.77C45.7946 142.566 37.8973 137.363 30 132.159C35.1956 130.286 40.3912 128.413 45.5867 126.539C45.8486 126.877 46.2538 127.339 46.8337 127.788C47.5091 128.313 48.1076 128.573 48.7041 128.829C49.9427 129.36 50.9818 129.58 51.4058 129.662C52.9707 129.961 54.5813 130.269 56.3935 129.662C57.1043 129.422 57.9148 128.8 59.5109 127.58C60.8326 126.571 61.8967 125.696 62.6282 125.082C62.0048 127.024 61.3813 128.968 60.7578 130.91C57.5719 132.091 54.3839 133.269 51.198 134.449C53.6233 135.975 56.0465 137.502 58.4718 139.028C57.8483 141.526 57.2248 144.023 56.6014 146.521C55.6308 146.937 54.6624 147.354 53.6918 147.77Z" fill="white"/>
<path d="M81.1245 165.878C81.7167 164.419 82.3132 162.675 82.787 160.675C83.2422 158.754 83.4895 156.995 83.6183 155.471C87.0827 157.761 90.5451 160.05 94.0095 162.34C93.9949 162.833 93.9825 163.553 94.0095 164.421C94.051 165.82 94.1176 167.712 94.633 169.833C95.0112 171.394 95.2294 172.289 95.8799 173.371C97.449 175.984 99.947 177.037 100.66 177.326C101.857 177.811 102.871 177.951 104.401 178.159C105.963 178.373 107.161 178.371 107.934 178.367C109.357 178.361 110.068 178.356 110.635 178.159C111.174 177.971 112.508 177.374 113.545 175.245C125.738 183.294 137.929 191.34 150.122 199.389C153.515 188.01 156.911 176.633 160.305 165.254C160.862 165.393 161.945 165.585 163.215 165.254C163.528 165.173 165.846 164.534 166.748 162.548C167.839 160.148 166.28 157.353 164.669 156.096C164.426 155.906 164.206 155.771 164.046 155.679C164.046 155.611 164.046 155.54 164.046 155.471C163.907 155.055 163.769 154.639 163.63 154.222C163.853 153.683 164.073 153.057 164.254 152.349C164.513 151.333 164.628 150.411 164.669 149.643C165.588 150.486 166.282 151.215 166.748 151.725C167.435 152.478 167.681 152.819 168.202 153.182C168.951 153.702 169.674 153.825 170.696 154.014C171.401 154.145 172.394 154.268 173.606 154.222C167.647 174.481 161.691 194.741 155.733 215C130.863 198.625 105.995 182.253 81.1245 165.878Z" fill="white"/>
<path d="M120.195 147.354C120.916 148.103 121.997 149.138 123.313 150.06C124.57 150.942 126.06 151.735 126.399 151.916C126.42 151.927 126.43 151.933 126.43 151.933C126.409 152.407 126.178 157.53 125.806 160.675C125.763 161.043 125.673 161.726 125.183 162.34C124.564 163.116 123.662 163.329 122.481 163.589C121.155 163.882 120.191 164.095 118.948 163.797C117.4 163.424 116.425 162.502 115.831 161.924C114.877 160.997 114.347 160.048 113.753 158.802C113.264 157.773 112.354 155.748 111.259 152.141C110.218 148.715 109.698 147.002 109.596 145.48C109.54 144.642 109.49 143.014 109.181 142.983C109.07 142.972 108.956 143.162 108.765 143.607C108.146 145.052 107.965 146.301 107.934 146.521C107.51 149.45 107.672 147.743 107.518 149.227C107.177 152.52 107.007 154.166 106.895 156.096C106.647 160.338 106.913 159.299 106.687 163.381C106.595 165.035 106.456 166.913 107.102 169.001C107.422 170.037 107.715 170.943 108.557 171.498C109.22 171.935 109.896 171.942 110.22 172.539C110.463 172.986 110.423 173.596 110.22 173.996C109.476 175.461 105.932 175.316 103.569 174.62C102.53 174.314 100.733 173.786 99.4129 172.123C98.5941 171.09 98.2678 170.012 97.9582 168.376C97.1497 164.113 97.3139 160.646 97.3347 160.259C97.6714 153.939 98.3738 149.643 98.3738 149.643C99.7392 141.921 101.202 136.308 101.699 134.657C102.593 131.687 103.484 129.212 104.193 127.372C104.241 127.322 104.311 127.247 104.401 127.164C104.401 127.164 104.974 126.625 105.648 126.331C106.205 126.088 106.863 126.202 108.141 126.539C110.151 127.07 111.155 127.337 111.882 127.788C112.969 128.463 113.638 129.243 113.961 129.662C114.449 130.294 115.112 131.158 115.207 132.367C115.255 132.965 115.124 133.148 115 134.033C114.846 135.127 114.9 135.902 115 137.363C115.135 139.326 115.21 140.314 115.623 141.526C115.927 142.412 116.548 143.815 117.909 145.272C118.132 146.199 118.341 147.171 118.533 148.186C118.659 148.861 118.718 149.273 118.948 150.684C119.121 151.743 119.266 152.607 119.364 153.182C119.441 153.198 119.509 153.198 119.572 153.182C120.546 152.932 120.32 148.988 120.195 147.354Z" fill="white"/>
<path d="M129.963 138.612C131.578 138.478 132.847 138.208 133.704 137.987C134.832 137.696 135.971 137.294 136.405 137.155C138.168 136.591 138.708 136.237 139.731 136.114C140.159 136.062 140.502 136.01 141.185 135.906C142.035 135.777 142.125 135.748 142.224 135.698C142.713 135.452 142.91 134.955 143.264 133.824C143.69 132.467 143.978 131.352 144.095 130.91C144.205 130.488 144.043 131.121 144.718 128.621C145.252 126.646 145.521 125.655 145.55 125.499C145.747 124.441 145.67 124.291 145.965 121.752C146.046 121.051 146.121 120.474 146.173 120.087C145.805 120.283 145.302 120.562 144.718 120.92C142.694 122.16 141.268 123.396 140.562 124.042C139.161 125.324 138.243 126.439 137.652 127.164C136.717 128.311 136.432 128.816 134.743 131.119C133.702 132.536 133.481 132.788 133.151 133.233C133.151 133.233 133.01 133.425 132.872 133.616C132.567 134.045 131.418 136.037 129.963 138.82C129.298 138.389 118.487 131.36 118.74 130.494C118.765 130.409 118.801 130.301 118.801 130.301C119.002 129.691 119.241 129.256 119.364 129.037C120.289 127.376 120.75 126.546 121.026 126.123C121.92 124.751 122.689 123.746 123.105 123.209C124.57 121.313 125.597 119.983 127.469 117.797C130.231 114.575 131.655 112.931 133.704 111.345C134.942 110.385 135.981 109.751 137.237 109.264C137.887 109.012 139.311 108.525 141.185 108.431C141.896 108.396 144.498 108.327 147.42 109.68C149.82 110.791 151.2 112.29 152.823 114.051C154.162 115.504 155.403 116.852 156.356 119.046C157.412 121.475 157.524 123.586 157.603 125.082C157.722 127.318 157.809 128.931 157.188 130.91C157.009 131.483 156.377 133.689 156.356 135.49C156.35 136.02 156.348 136.534 156.564 137.155C156.78 137.777 157.04 138.008 157.188 138.612C157.29 139.028 157.418 139.565 157.188 140.069C157.003 140.472 156.73 140.535 155.941 141.109C155.261 141.603 154.837 141.911 154.486 142.358C154.222 142.695 154.07 143.018 153.655 144.44C153.291 145.682 153.233 146.028 153.031 146.729C152.697 147.891 152.518 148.128 151.784 150.059C151.319 151.285 151.306 151.412 150.745 152.973C150.745 152.973 150.059 154.876 149.083 157.344C147.366 161.682 146.595 162.35 144.51 167.335C143.421 169.941 142.035 172.418 140.977 175.037C140.977 175.037 140.618 175.927 139.523 177.326C139.431 177.443 139.336 177.518 139.315 177.534C139.176 177.64 139.047 177.69 138.899 177.742C138.642 177.834 138.39 177.924 138.276 177.951C137.596 178.111 136.405 177.326 136.405 177.326C135.181 176.521 134.568 176.117 133.912 175.453C132.606 174.133 131.977 172.841 131.833 172.539C131.553 171.948 131.145 171.067 131.002 169.833C130.852 168.543 131.071 167.539 131.21 166.919C131.42 165.993 131.592 165.828 132.249 164.005C132.741 162.64 132.679 162.633 133.08 161.507C133.756 159.617 133.924 159.651 134.743 157.553C135.476 155.671 135.512 155.205 136.198 153.806C136.522 153.146 136.929 152.765 137.237 151.933C137.573 151.023 137.646 150.201 137.652 149.643C137.066 149.749 136.206 149.901 135.158 150.059C133.357 150.332 132.455 150.47 131.625 150.476C129.817 150.49 128.444 150.001 127.469 149.643C124.217 148.451 122.23 146.361 121.026 145.064C119.516 143.436 118.194 142.015 117.493 139.652C116.7 136.971 117.144 134.632 117.493 133.408C117.782 132.394 118.836 128.706 120.819 128.205C123.248 127.59 126.958 131.785 129.963 138.612Z" fill="white"/>
<path d="M151.369 157.345C151.56 157.78 151.882 158.385 152.408 159.01C153.293 160.059 154.262 160.56 154.902 160.883C156.492 161.686 157.913 161.834 158.85 161.924C159.515 161.986 160.345 162.076 161.344 161.924C162.737 161.711 163.088 161.28 163.215 161.091C163.279 160.993 163.566 160.562 163.422 160.05C163.375 159.876 163.262 159.742 162.591 159.218C162.065 158.808 161.951 158.752 161.76 158.593C161.207 158.138 160.947 157.601 160.721 157.136C160.222 156.11 160.128 155.174 160.097 154.847C159.688 150.42 159.889 145.689 159.889 145.689C159.985 143.443 160.074 142.071 160.097 141.734C160.264 139.228 160.33 137.95 160.513 136.738C160.654 135.804 160.712 135.673 161.136 133.2C161.28 132.367 161.446 131.539 161.552 130.702C161.562 130.625 161.589 130.392 161.76 130.286C161.874 130.215 162.04 130.209 162.176 130.286C162.34 130.382 162.369 130.6 162.383 130.702C162.487 131.468 162.537 132.669 162.591 133.2C162.612 133.406 162.674 133.685 162.799 134.241C162.944 134.894 163.181 135.945 163.63 137.363C164.183 139.113 164.297 139.018 165.085 141.318C165.47 142.441 165.484 142.583 165.916 143.815C166.428 145.27 166.683 145.999 166.955 146.521C167.292 147.168 167.936 148.376 169.242 149.435C169.877 149.951 170.796 150.699 172.151 150.892C172.307 150.915 173.086 150.838 174.645 150.684C175.987 150.551 176.63 150.47 177.347 150.06C177.629 149.897 177.914 149.749 178.178 149.435C178.567 148.973 178.652 148.482 178.801 147.562C178.922 146.825 178.876 146.663 179.009 145.689C179.099 145.037 179.192 144.577 179.217 144.44C179.612 142.335 179.824 135.798 179.84 135.281C179.959 131.737 180.285 129.043 180.464 127.58C180.728 125.418 181.065 122.722 181.919 119.254C182.561 116.644 183.881 112.042 186.491 106.766C186.576 106.593 186.649 106.447 186.699 106.35C186.73 106.179 186.719 106.039 186.699 105.933C186.676 105.819 186.572 105.434 185.66 104.893C185.167 104.601 184.791 104.483 184.205 104.268C183.829 104.131 183.255 103.918 182.542 103.644C181.376 103.465 180.447 103.544 179.84 103.644C179.119 103.762 178.812 103.914 178.594 104.06C177.945 104.497 177.692 105.159 177.554 105.517C176.054 109.422 176.166 108.525 175.684 110.304C175.387 111.401 175.208 112.284 174.853 114.051C174.472 115.943 174.225 117.165 174.021 118.63C173.787 120.318 173.724 121.584 173.606 124.042C173.471 126.856 173.431 129.256 173.398 131.327C173.367 133.192 173.358 134.703 173.19 136.947C173.167 137.261 173.464 138.264 172.982 139.236C172.791 139.623 172.544 139.896 172.359 140.069C172.274 139.503 172.134 138.632 171.943 137.571C171.665 136.029 171.415 134.892 171.32 134.449C170.069 128.675 169.242 124.25 169.242 124.25C168.973 122.816 168.743 121.502 168.202 119.671C167.388 116.909 166.785 116.076 166.124 115.508C165.048 114.582 163.782 114.334 163.007 114.259C161.76 113.911 160.513 113.566 159.266 113.218C159.012 113.189 158.524 113.17 158.019 113.426C156.876 114.007 156.776 115.427 156.772 115.508C157.157 115.947 157.711 116.644 158.227 117.589C158.474 118.043 159.389 119.787 159.682 122.793C160.182 127.942 158.657 134.73 158.435 135.698C158.726 136.231 159.071 137.005 159.266 137.987C159.47 139.013 159.702 140.062 159.266 141.109C158.582 142.754 156.728 143.297 156.356 143.399C154.694 148.047 153.031 152.697 151.369 157.345Z" fill="white"/>
<path d="M197.298 100.314C198.154 99.7286 198.549 99.1146 198.752 98.6484C199.106 97.8387 199.07 97.029 199.792 96.1507C199.954 95.9529 200.043 95.8447 200.207 95.7344C200.901 95.266 201.6 95.649 202.493 95.5262C203.156 95.4346 203.551 95.1162 204.156 94.6937C206.77 92.862 210.197 91.2281 211.222 90.7389C213.24 89.7773 214.154 89.5692 214.963 89.4901C215.495 89.4381 216.59 89.3402 217.872 89.6982C221.251 90.6432 222.692 93.8569 223.068 94.6937C223.068 94.6937 223.81 96.3484 223.483 98.0239C223.469 98.0947 223.431 98.2883 223.276 98.4402C223.051 98.6588 222.723 98.6504 222.652 98.6484C222.367 98.64 222.072 98.5047 221.405 97.8158C220.605 96.9874 220.563 96.7022 220.158 96.5669C219.676 96.4067 219.198 96.6335 218.911 96.7751C215.821 98.2945 214.3 99.098 212.884 100.105C211.779 100.892 210.125 101.96 207.897 103.019C207.787 103.209 207.633 103.494 207.481 103.852C206.92 105.174 206.889 106.31 206.858 106.974C206.795 108.298 206.548 109.607 206.442 110.929C205.904 117.706 205.23 120.41 204.987 121.336C204.821 121.967 204.669 122.474 204.571 122.793C204.609 122.866 204.673 122.955 204.779 123.001C205.072 123.126 205.384 122.766 205.818 122.585C206.35 122.362 206.868 122.487 207.273 122.585C207.747 122.699 208.643 122.895 208.936 123.625C209.102 124.038 209.006 124.448 208.936 124.666C207.412 125.842 206.45 126.429 205.818 126.748C205.669 126.823 205.311 126.997 204.987 127.372C204.582 127.842 204.461 128.359 204.364 128.829C203.975 130.69 203.948 131.327 203.948 131.327C203.948 134.63 203.753 136.278 203.948 138.612C204.05 139.834 204.231 141.472 204.571 143.399C204.576 143.416 204.673 143.73 204.987 143.815C205.255 143.888 205.517 143.678 205.611 143.607C206.043 143.282 207.009 142.756 208.728 141.942C209.47 141.59 210.908 140.864 213.924 139.652C217.683 138.141 217.872 138.36 219.327 137.779C219.437 137.735 219.74 137.613 220.158 137.571C220.466 137.54 220.888 137.548 221.613 137.779C222.69 138.123 223.444 138.643 223.691 138.82C224.178 139.17 224.82 139.64 225.354 140.485C225.892 141.334 225.963 141.998 225.977 142.15C226.011 142.51 226.048 142.976 225.769 143.399C225.56 143.717 225.271 143.863 224.938 144.023C224.236 144.363 223.612 144.427 223.483 144.44C222.509 144.54 221.551 144.777 220.574 144.856C219.481 144.943 218.321 145.399 216.002 146.313C214.025 147.089 212.153 147.828 209.975 149.227C207.928 150.542 206.65 151.517 206.65 151.517C205.976 152.029 205.261 152.484 204.571 152.974C203.836 153.496 203.574 153.69 203.117 153.806C202.209 154.037 201.419 153.742 201.038 153.598C200.531 153.407 199.06 152.855 198.752 151.517C198.588 150.798 198.825 150.145 198.96 149.851C199.162 149.412 199.422 149.183 199.792 148.811C200.205 148.397 200.785 147.776 201.454 146.937C201.454 146.869 201.454 146.798 201.454 146.729C200.371 145.668 199.426 144.927 198.752 144.44C198.139 143.996 197.74 143.757 197.298 143.191C196.861 142.633 196.651 142.102 196.259 141.109C196.051 140.587 195.828 140.023 195.635 139.236C195.498 138.68 195.338 138.131 195.219 137.571C195.101 137.007 195.034 136.584 194.804 136.53C194.719 136.512 194.619 136.543 194.388 136.738C193.97 137.094 193.792 137.432 193.557 137.779C193.16 138.368 193.114 138.237 192.726 138.82C192.316 139.432 192.364 139.58 192.102 139.861C191.645 140.348 191.001 140.437 190.647 140.485C189.288 140.67 187.7 140.006 187.114 138.82C186.975 138.541 186.925 138.293 186.907 138.195C186.803 137.627 186.892 136.92 187.53 135.906C187.694 135.646 188.345 134.649 190.024 133.408C190.656 132.942 192.904 131.354 193.765 130.702C193.842 130.644 194.014 130.511 194.18 130.286C194.517 129.828 194.571 129.329 194.596 129.037C194.673 128.119 194.712 127.661 194.596 126.956C194.465 126.165 194.579 125.965 195.012 121.752C195.317 118.782 195.355 118.297 195.427 117.381C195.531 116.068 195.596 114.985 195.635 114.259C195.583 114.244 195.506 114.232 195.427 114.259C195.298 114.305 195.236 114.434 195.219 114.467C194.974 114.95 194.494 115.275 194.18 115.716C193.201 117.088 193.555 116.513 192.518 118.006C191.298 119.758 191.092 120.145 190.44 120.503C190.209 120.628 189.689 120.907 188.985 120.92C188.085 120.936 187.466 120.51 186.283 119.671C185.3 118.973 184.805 118.613 184.62 118.006C184.531 117.714 184.49 117.325 184.828 116.132C185.306 114.451 185.867 113.426 185.867 113.426C186.967 111.422 188.382 109.647 189.193 108.639C193.191 103.673 194.527 102.457 195.635 101.562C196.311 101.017 196.894 100.594 197.298 100.314Z" fill="white"/>
</svg>
